<?xml version="1.0" encoding="utf-8"?>
<!-- Generator: Adobe Illustrator 26.3.1, SVG Export Plug-In . SVG Version: 6.00 Build 0)  -->
<svg version="1.1" id="Layer_1" xmlns="http://www.w3.org/2000/svg" xmlns:xlink="http://www.w3.org/1999/xlink" x="0px" y="0px"
	 viewBox="0 0 141.73 141.73" style="enable-background:new 0 0 141.73 141.73;" xml:space="preserve">
<style type="text/css">
	.st0{fill:#F5F5F5;}
	.st1{fill:#EBDBC5;}
	.st2{fill:#C3945D;}
	.st3{fill:#1D1D1C;}
	.st4{fill:#384240;}
	.st5{fill:#FEFCF5;}
	.st6{fill:url(#);}
</style>
<g>
	<g>
		<polygon class="st2" points="48.64,69.71 43.92,74.43 57.29,74.43 63.98,74.43 70.66,74.44 77.33,74.44 84.02,74.44 88.75,69.71 
			82.06,69.71 75.39,69.71 68.7,69.71 62.02,69.71 55.33,69.71 		"/>
		<polygon class="st2" points="64.79,60.25 60.06,64.98 66.75,64.98 73.43,64.97 80.11,64.98 86.8,64.98 93.47,64.97 98.19,60.25 
			71.47,60.26 		"/>
		<polygon class="st2" points="70.32,41.35 41.96,69.71 48.64,69.71 77,41.35 		"/>
		<polygon class="st2" points="61.68,36.62 47.5,50.8 54.18,50.8 63.63,41.35 70.32,41.35 77,41.35 81.73,36.62 75.05,36.62 
			68.36,36.62 		"/>
		<polygon class="st2" points="93.41,65.03 84.01,74.43 90.7,74.43 100.1,65.03 		"/>
	</g>
	<g>
		<g>
			<path class="st2" d="M44.83,101.44v3.36H33.8V87.55h3.53v13.89H44.83z"/>
			<path class="st2" d="M57.06,93.2v-1.95h3.53v13.55h-3.53v-1.89c-0.9,1.32-2.35,2.2-4.27,2.2c-3.52,0-6.24-2.92-6.24-7.08
				c0-4.19,2.76-7.08,6.21-7.08C54.69,90.94,56.15,91.85,57.06,93.2z M50.11,98.03c0,2.23,1.52,3.72,3.48,3.72
				c1.97,0,3.47-1.49,3.47-3.72c0-2.22-1.5-3.73-3.47-3.72C51.62,94.3,50.11,95.81,50.11,98.03z"/>
			<path class="st2" d="M67.34,93.2c0.91-1.35,2.37-2.26,4.3-2.26c3.45,0,6.21,2.9,6.21,7.08c0,4.16-2.71,7.08-6.24,7.08
				c-1.93,0-3.37-0.88-4.28-2.2v1.89h-3.53V85.83h3.53V93.2z M70.82,94.31c-1.97,0-3.47,1.5-3.47,3.72c0,2.24,1.5,3.72,3.47,3.72
				c1.96,0,3.48-1.49,3.48-3.72C74.29,95.81,72.78,94.3,70.82,94.31L70.82,94.31z"/>
			<path class="st2" d="M80.5,104.8V91.25h3.53v10.19h5.25V91.25h3.53v13.55H80.5z"/>
			<path class="st2" d="M105.32,91.25v3.32h-4.5v6.91h4.5v3.32h-8.03V94.57h-2.34v-3.32h2.34v-2.98h3.53v2.98H105.32z M102.66,89.83
				l1.44-4h3.83l-2.39,4H102.66z"/>
		</g>
	</g>
</g>
</svg>
