<?xml version="1.0" encoding="UTF-8" standalone="no"?>
<!DOCTYPE svg PUBLIC "-//W3C//DTD SVG 1.1//EN" "http://www.w3.org/Graphics/SVG/1.1/DTD/svg11.dtd">
<svg width="100%" height="100%" viewBox="0 0 100 81" version="1.1" xmlns="http://www.w3.org/2000/svg" xmlns:xlink="http://www.w3.org/1999/xlink" xml:space="preserve" xmlns:serif="http://www.serif.com/" style="fill-rule:evenodd;clip-rule:evenodd;stroke-linejoin:round;stroke-miterlimit:2;">
    <g transform="matrix(1,0,0,1,-20,-30)">
        <g>
            <path d="M48.64,69.71L43.92,74.43L63.98,74.43L70.66,74.44L84.02,74.44L88.75,69.71L48.64,69.71Z" style="fill:rgb(29,29,28);fill-rule:nonzero;"/>
            <path d="M64.79,60.25L60.06,64.98L66.75,64.98L73.43,64.97L80.11,64.98L86.8,64.98L93.47,64.97L98.19,60.25L71.47,60.26L64.79,60.25Z" style="fill:rgb(29,29,28);fill-rule:nonzero;"/>
            <path d="M70.32,41.35L41.96,69.71L48.64,69.71L77,41.35L70.32,41.35Z" style="fill:rgb(29,29,28);fill-rule:nonzero;"/>
            <path d="M61.68,36.62L47.5,50.8L54.18,50.8L63.63,41.35L77,41.35L81.73,36.62L61.68,36.62Z" style="fill:rgb(29,29,28);fill-rule:nonzero;"/>
            <path d="M93.41,65.03L84.01,74.43L90.7,74.43L100.1,65.03L93.41,65.03Z" style="fill:rgb(29,29,28);fill-rule:nonzero;"/>
        </g>
        <g>
            <g>
                <path d="M44.83,101.44L44.83,104.8L33.8,104.8L33.8,87.55L37.33,87.55L37.33,101.44L44.83,101.44Z" style="fill:rgb(29,29,28);fill-rule:nonzero;"/>
                <path d="M57.06,93.2L57.06,91.25L60.59,91.25L60.59,104.8L57.06,104.8L57.06,102.91C56.16,104.23 54.71,105.11 52.79,105.11C49.27,105.11 46.55,102.19 46.55,98.03C46.55,93.84 49.31,90.95 52.76,90.95C54.69,90.94 56.15,91.85 57.06,93.2ZM50.11,98.03C50.11,100.26 51.63,101.75 53.59,101.75C55.56,101.75 57.06,100.26 57.06,98.03C57.06,95.81 55.56,94.3 53.59,94.31C51.62,94.3 50.11,95.81 50.11,98.03Z" style="fill:rgb(29,29,28);fill-rule:nonzero;"/>
                <path d="M67.34,93.2C68.25,91.85 69.71,90.94 71.64,90.94C75.09,90.94 77.85,93.84 77.85,98.02C77.85,102.18 75.14,105.1 71.61,105.1C69.68,105.1 68.24,104.22 67.33,102.9L67.33,104.79L63.8,104.79L63.8,85.83L67.33,85.83L67.33,93.2L67.34,93.2ZM70.82,94.31C68.85,94.31 67.35,95.81 67.35,98.03C67.35,100.27 68.85,101.75 70.82,101.75C72.78,101.75 74.3,100.26 74.3,98.03C74.29,95.81 72.78,94.3 70.82,94.31Z" style="fill:rgb(29,29,28);fill-rule:nonzero;"/>
                <path d="M80.5,104.8L80.5,91.25L84.03,91.25L84.03,101.44L89.28,101.44L89.28,91.25L92.81,91.25L92.81,104.8L80.5,104.8Z" style="fill:rgb(29,29,28);fill-rule:nonzero;"/>
                <path d="M105.32,91.25L105.32,94.57L100.82,94.57L100.82,101.48L105.32,101.48L105.32,104.8L97.29,104.8L97.29,94.57L94.95,94.57L94.95,91.25L97.29,91.25L97.29,88.27L100.82,88.27L100.82,91.25L105.32,91.25ZM102.66,89.83L104.1,85.83L107.93,85.83L105.54,89.83L102.66,89.83Z" style="fill:rgb(29,29,28);fill-rule:nonzero;"/>
            </g>
        </g>
    </g>
</svg>
