<?xml version="1.0" encoding="utf-8"?>
<!-- Generator: Adobe Illustrator 26.3.1, SVG Export Plug-In . SVG Version: 6.00 Build 0)  -->
<svg version="1.1" id="Layer_1" xmlns="http://www.w3.org/2000/svg" xmlns:xlink="http://www.w3.org/1999/xlink" x="0px" y="0px"
	 viewBox="0 0 141.73 141.73" style="enable-background:new 0 0 141.73 141.73;" xml:space="preserve">
<style type="text/css">
	.st0{fill:#F5F5F5;}
	.st1{fill:#EBDBC5;}
	.st2{fill:#C3945D;}
	.st3{fill:#1D1D1C;}
	.st4{fill:#384240;}
	.st5{fill:#FEFCF5;}
	.st6{fill:url(#);}
</style>
<g>
	<polygon class="st4" points="48.48,85.05 43.76,89.77 57.13,89.77 63.81,89.77 70.49,89.77 77.17,89.77 83.85,89.77 88.58,85.05 
		81.9,85.05 75.22,85.05 68.54,85.05 61.85,85.05 55.17,85.05 	"/>
	<polygon class="st4" points="64.63,75.59 59.9,80.32 66.59,80.32 73.26,80.31 79.94,80.32 86.63,80.32 93.31,80.31 98.03,75.59 
		71.3,75.6 	"/>
	<polygon class="st4" points="70.15,56.69 41.8,85.05 48.48,85.05 76.84,56.69 	"/>
	<polygon class="st4" points="61.51,51.96 47.33,66.14 54.02,66.14 63.47,56.69 70.15,56.69 76.84,56.69 81.57,51.96 74.88,51.96 
		68.2,51.96 	"/>
	<polygon class="st4" points="93.25,80.37 83.85,89.77 90.54,89.77 99.94,80.37 	"/>
</g>
</svg>
