<?xml version="1.0" encoding="utf-8"?>
<!-- Generator: Adobe Illustrator 26.3.1, SVG Export Plug-In . SVG Version: 6.00 Build 0)  -->
<svg version="1.1" id="Layer_1" xmlns="http://www.w3.org/2000/svg" xmlns:xlink="http://www.w3.org/1999/xlink" x="0px" y="0px"
	 viewBox="0 0 673.19 637.22" style="enable-background:new 0 0 673.19 637.22;" xml:space="preserve">
<style type="text/css">
	.st0{fill:none;}
	.st1{fill:none;stroke:#596764;stroke-width:0.5;stroke-miterlimit:10;}
	.st2{fill:#F5F5F5;}
	.st3{fill:#EBDBC5;}
	.st4{fill:#C3945D;}
	.st5{fill:#1D1D1C;}
	.st6{fill:#384240;}
	.st7{fill:#FEFCF5;}
	.st8{fill:url(#);}
	.st9{fill:url(#SVGID_1_);}
</style>
<pattern  x="-1112.71" y="-1572.44" width="152.92" height="143.36" patternUnits="userSpaceOnUse" id="labut_x5F_outline" viewBox="0 -143.36 152.92 143.36" style="overflow:visible;">
	<g>
		<rect y="-143.36" class="st0" width="152.92" height="143.36"/>
		<path class="st1" d="M52.11-125.13H29.83c0-0.55,0.04-1.08,0.13-1.61c0.73-5.3,5.17-9.41,10.61-9.6c0.13-0.02,0.28-0.02,0.41-0.02
			C47.13-136.35,52.11-131.34,52.11-125.13z"/>
		<path class="st1" d="M99.39-77.71l-22.29,0c0-0.55,0.04-1.08,0.13-1.61c0.73-5.3,5.17-9.41,10.61-9.6
			c0.13-0.02,0.28-0.02,0.41-0.02C94.41-88.93,99.39-83.91,99.39-77.71z"/>
		<path class="st1" d="M52.11-30.36H29.83c0-0.55,0.04-1.08,0.13-1.61c0.73-5.3,5.17-9.41,10.61-9.6c0.13-0.02,0.28-0.02,0.41-0.02
			C47.13-41.59,52.11-36.57,52.11-30.36z"/>
		<polygon class="st1" points="28.56,-111.84 19.93,-103.18 19.24,-102.49 6.27,-102.49 6.97,-103.18 15.6,-111.84 		"/>
		<polygon class="st1" points="123.02,-111.84 114.39,-103.18 113.69,-102.49 100.73,-102.49 101.42,-103.18 110.05,-111.84 		"/>
		<polygon class="st1" points="146.64,-40.65 138.01,-31.99 137.32,-31.3 124.36,-31.3 125.05,-31.99 133.68,-40.65 		"/>
		<polygon class="st1" points="75.75,-64.23 67.12,-55.58 66.43,-54.88 53.46,-54.88 54.16,-55.58 62.79,-64.23 		"/>
		<path class="st1" d="M91.38-131.05l-6.26-6.25l-8.01,8l3.43,3.43l4.58-4.57l6.26,6.25l8.01-8l-3.43-3.43L91.38-131.05z"/>
		<path class="st1" d="M115-12.93l-6.26-6.25l-8.01,8l3.43,3.43l4.58-4.57L115-6.07l8.01-8l-3.43-3.43L115-12.93z"/>
		<path class="st1" d="M138.63-83.62l-6.26-6.25l-8.01,8l3.43,3.43l4.58-4.57l6.26,6.25l8.01-8l-3.43-3.43L138.63-83.62z"/>
		<path class="st1" d="M20.55-59.86l-6.26-6.25l-8.01,8l3.43,3.43l4.58-4.57L20.55-53l8.01-8l-3.43-3.43L20.55-59.86z"/>
		<polygon class="st1" points="64.61,-101.4 53.46,-101.4 59.04,-107.16 64.61,-112.93 70.18,-107.16 75.75,-101.4 		"/>
		<polygon class="st1" points="88.25,-30.21 77.1,-30.21 82.68,-35.97 88.25,-41.74 93.82,-35.97 99.39,-30.21 		"/>
		<polygon class="st1" points="17.42,-6.86 6.27,-6.86 11.84,-12.62 17.42,-18.38 22.99,-12.62 28.56,-6.86 		"/>
		<circle class="st1" cx="135.5" cy="-130.74" r="6.7"/>
		<circle class="st1" cx="111.87" cy="-59.56" r="6.7"/>
		<circle class="st1" cx="40.97" cy="-83.32" r="6.7"/>
		<circle class="st1" cx="64.61" cy="-12.62" r="6.7"/>
	</g>
</pattern>
<pattern  id="SVGID_1_" xlink:href="#labut_x5F_outline" patternTransform="matrix(1 0 0 1 400.5464 28.4479)">
</pattern>
<rect class="st9" width="673.19" height="637.22"/>
</svg>
